:SAMPLES-PER-SECOND 30
:FULLY-SPECIFIED
:DEGREES
913
root  -8.17562 36.733 2.79138 -161.382 75.7595 -160.797
RightUpLeg  -10.7303 -17.2726 -18.3007
RightLeg  29.9638 8.95095 5.31884
RightFoot  -7.80314 -0.867782 25.8791
RightToes  -2.32832e-010 0 -3.6325e-017
Spine  31.3173 3.37434 6.92609
Spine1  -0.631266 7.27092 -10.3423
HEad  -25.931 -21.7073 11.996
LeftShoulder1  1.47139 -3.06486 -15.6244
LeftArm  -0.913788 32.0872 -46.7849
LeftForeArm  107.637 -79.0955 -110.572
LeftHand  -1.18043 -2.28747 17.9808
RightShoulder  0.888208 0.680642 14.4496
RightArm  -21.7725 -33.1732 34.2165
RightForeArm  141.934 64.1928 156.753
RightHand  -0.679379 -0.950501 -17.6713
LeftUpLeg  -26.7915 10.0395 15.8689
LeftLeg  41.4898 -0.842321 -0.403403
LeftFoot  -12.9655 -0.11992 -13.7271
LeftToes  2.2737e-010 4.38529e-011 2.18788e-011
914
root  -8.26548 36.7177 2.2988 -165.536 80.7253 -164.801
RightUpLeg  -11.5473 -11.3537 -20.6046
RightLeg  27.8611 7.93857 4.32067
RightFoot  -7.61066 -0.937063 26.7295
RightToes  -2.32832e-010 0 -3.6325e-017
Spine  30.9364 3.35253 7.99394
Spine1  0.750056 8.72328 -15.8607
HEad  -26.2933 -20.8272 11.0412
LeftShoulder1  1.46009 -2.93867 -15.889
LeftArm  -0.743855 38.6719 -41.5457
LeftForeArm  115.106 -78.7288 -116.203
LeftHand  -1.17568 -3.32859 15.8484
RightShoulder  0.783355 0.851693 10.8269
RightArm  -22.8785 -26.2992 29.7338
RightForeArm  139.241 63.7412 156.896
RightHand  -0.747922 -0.875244 -19.1505
LeftUpLeg  -24.8977 11.9362 13.2834
LeftLeg  42.0788 -0.746563 -0.312488
LeftFoot  -15.214 -0.385096 -14.0481
LeftToes  2.2737e-010 4.38529e-011 2.18788e-011
915
root  -8.33824 36.7047 1.69584 -177.885 82.7831 -177.871
RightUpLeg  -12.1019 -3.83898 -23.2664
RightLeg  25.6091 4.21185 1.99706
RightFoot  -7.3056 -1.09838 28.9842
RightToes  -2.32832e-010 0 -3.6325e-017
Spine  29.8548 2.85252 8.39486
Spine1  1.65016 8.87213 -18.5254
HEad  -26.8189 -20.2712 9.79122
LeftShoulder1  1.30087 -2.48082 -14.8761
LeftArm  1.62281 40.5475 -38.4862
LeftForeArm  121.193 -78.2261 -121.387
LeftHand  -1.01862 -4.1651 12.587
RightShoulder  0.721404 0.985891 8.6629
RightArm  -24.7456 -24.1894 24.7099
RightForeArm  141.872 63.4324 157.658
RightHand  -0.796815 -0.800896 -20.0638
LeftUpLeg  -24.9901 11.2951 9.69736
LeftLeg  42.087 0.670516 1.05489
LeftFoot  -15.3206 -0.385553 -13.6402
LeftToes  2.2737e-010 4.38529e-011 2.18788e-011
916
root  -8.46701 36.807 1.00581 169.947 83.1208 169.136
RightUpLeg  -13.0685 2.47061 -25.1786
RightLeg  24.9025 -2.97597 -1.74169
RightFoot  -4.74149 -1.65846 27.9981
RightToes  -2.32832e-010 0 -3.6325e-017
Spine  29.55 1.96542 9.54456
Spine1  1.39469 8.57381 -20.5774
HEad  -27.5975 -20.574 9.03684
LeftShoulder1  1.19976 -2.37843 -13.4186
LeftArm  3.88941 37.3203 -37.3261
LeftForeArm  123.187 -78.2695 -122.036
LeftHand  -0.78671 -4.48025 9.54231
RightShoulder  0.72316 0.986466 8.71373
RightArm  -25.5481 -27.4889 18.67
RightForeArm  142.159 68.2902 152.134
RightHand  -0.970585 0.0538224 -20.6021
LeftUpLeg  -25.3466 10.432 6.3989
LeftLeg  41.007 2.87288 3.07329
LeftFoot  -13.9945 -0.213546 -12.7927
LeftToes  2.2737e-010 4.38529e-011 2.18788e-011
917
root  -8.59603 37.0878 0.306849 160.195 83.6018 158.616
RightUpLeg  -15.455 5.24071 -25.6789
RightLeg  27.4522 -12.1538 -7.06291
RightFoot  -0.932616 -2.04546 22.1661
RightToes  -2.32832e-010 0 -3.6325e-017
Spine  29.0673 1.29756 9.82574
Spine1  1.63103 8.03469 -20.8299
HEad  -29.1844 -20.5773 9.05225
LeftShoulder1  1.21617 -2.78547 -12.2501
LeftArm  3.75231 30.5951 -38.3359
LeftForeArm  108.422 -79.871 -103.251
LeftHand  -0.842601 -4.73381 9.92122
RightShoulder  0.761027 1.00577 9.57656
RightArm  -23.9049 -30.2784 14.1753
RightForeArm  92.0782 78.0013 99.449
RightHand  -1.21297 1.10721 -21.7071
LeftUpLeg  -24.9109 12.3881 3.78804
LeftLeg  38.7123 3.48484 3.40877
LeftFoot  -13.1545 -0.118349 -12.4259
LeftToes  2.2737e-010 4.38529e-011 2.18788e-011
918
root  -8.62406 37.4369 -0.300353 145.672 83.5766 143.329
RightUpLeg  -19.0691 2.49472 -25.0583
RightLeg  33.476 -17.5997 -12.3407
RightFoot  -0.401365 -1.60273 16.4628
RightToes  -2.32832e-010 0 -3.6325e-017
Spine  27.7335 1.01109 7.24723
Spine1  2.5944 6.55749 -17.6036
HEad  -30.6017 -20.4172 8.67417
LeftShoulder1  1.40158 -3.68905 -12.3854
LeftArm  1.79299 21.9269 -41.1448
LeftForeArm  50.3472 -75.6797 -46.808
LeftHand  -1.21617 -3.72994 15.4942
RightShoulder  0.830403 1.32679 9.92778
RightArm  -17.8472 -28.8374 12.2418
RightForeArm  10.748 58.0983 17.0016
RightHand  -1.14155 1.11437 -20.6014
LeftUpLeg  -23.9007 17.6231 0.744121
LeftLeg  35.5439 1.04949 1.2257
LeftFoot  -12.648 -0.0678371 -12.5261
LeftToes  2.2737e-010 4.38529e-011 2.18788e-011
919
root  -8.48636 37.6796 -0.790853 135.331 80.9311 132.453
RightUpLeg  -22.4983 -6.61095 -23.7725
RightLeg  40.5569 -13.8609 -12.4321
RightFoot  -5.03763 -0.936795 16.61
RightToes  -2.32832e-010 0 -3.6325e-017
Spine  26.1687 0.140802 2.58856
Spine1  2.55949 3.29059 -11.8225
HEad  -30.3009 -21.4361 7.0274
LeftShoulder1  1.84988 -5.3407 -13.9638
LeftArm  0.499906 11.9621 -45.3726
LeftForeArm  0.843197 -55.8148 -16.488
LeftHand  -1.20193 -0.484578 24.7766
RightShoulder  0.926464 1.74131 10.4484
RightArm  -2.96216 -27.0732 10.9307
RightForeArm  1.67183 27.1844 6.18544
RightHand  -0.402286 -2.81266 -12.9044
LeftUpLeg  -22.5494 22.4784 -3.49557
LeftLeg  32.1349 -2.64415 -1.40966
LeftFoot  -11.0321 0.0994082 -12.5171
LeftToes  2.2737e-010 4.38529e-011 2.18788e-011
920
root  -8.1407 37.781 -1.19488 132.968 76.4746 129.995
RightUpLeg  -25.5199 -18.7616 -21.9959
RightLeg  46.369 -5.67162 -6.72988
RightFoot  -8.78536 -0.475701 18.1159
RightToes  -2.32832e-010 0 -3.6325e-017
Spine  24.6049 -2.36347 -2.31685
Spine1  1.11704 -1.56261 -6.7235
HEad  -28.608 -23.0265 5.59595
LeftShoulder1  2.35677 -7.19898 -15.228
LeftArm  -0.796369 3.65049 -50.2438
LeftForeArm  -44.6886 -33.2235 -9.02336
LeftHand  0.370162 6.56603 34.9641
RightShoulder  0.96832 1.58555 12.0032
RightArm  18.7872 -30.6006 10.6021
RightForeArm  7.77634 16.5092 7.90323
RightHand  -0.0831681 -9.03276 1.86078
LeftUpLeg  -20.3407 23.7452 -8.05209
LeftLeg  28.869 -4.32012 -2.21206
LeftFoot  -9.2322 0.290606 -12.7513
LeftToes  2.2737e-010 4.38529e-011 2.18788e-011
921
root  -7.58184 37.96 -1.53351 124.298 74.0649 122.013
RightUpLeg  -28.5269 -26.388 -18.2549
RightLeg  49.115 -5.182 -6.73087
RightFoot  -6.74255 -0.621518 14.7656
RightToes  -2.32832e-010 0 -3.6325e-017
Spine  22.6707 -6.22128 -6.55266
Spine1  0.159985 -6.8015 -4.4257
HEad  -26.4907 -23.185 6.76482
LeftShoulder1  2.49099 -7.84241 -15.1243
LeftArm  -6.56492 2.77706 -53.5597
LeftForeArm  -74.2254 -23.1686 -7.31554
LeftHand  1.74623 10.4292 38.8726
RightShoulder  0.917173 0.92359 13.8613
RightArm  41.1951 -38.4163 13.9823
RightForeArm  18.1673 24.6917 4.55362
RightHand  -0.574843 -10.1565 12.8513
LeftUpLeg  -16.4731 23.82 -10.7254
LeftLeg  25.6692 -3.66642 -1.62083
LeftFoot  -8.82798 0.363731 -14.2998
LeftToes  2.2737e-010 4.38529e-011 2.18788e-011
922
root  -6.90728 38.3206 -1.64724 98.3293 74.9148 97.9414
RightUpLeg  -29.5602 -24.1029 -12.2048
RightLeg  48.1789 -16.3621 -18.6403
RightFoot  -3.98013 -0.565272 8.1381
RightToes  -2.32832e-010 0 -3.6325e-017
Spine  21.0429 -9.76202 -10.1872
Spine1  0.131377 -11.0413 -4.19193
HEad  -22.5877 -22.83 10.0131
LeftShoulder1  2.24965 -6.6372 -15.4205
LeftArm  -15.5543 10.5206 -54.2524
LeftForeArm  -76.18 -30.4592 -8.95508
LeftHand  1.05352 9.40907 29.0317
RightShoulder  0.900678 0.570331 15.3931
RightArm  42.1784 -45.4052 19.7029
RightForeArm  39.8033 34.9231 5.46332
RightHand  -0.490435 -8.47769 15.6184
LeftUpLeg  -11.6609 26.0511 -9.74227
LeftLeg  24.0701 -2.37375 -1.01702
LeftFoot  -7.8951 0.594886 -17.8202
LeftToes  2.2737e-010 4.38529e-011 2.18788e-011
923
root  -6.25388 38.5373 -1.36229 56.5088 72.9743 58.6865
RightUpLeg  -26.8942 -14.6742 -6.78614
RightLeg  47.7569 -31.5324 -31.9694
RightFoot  -4.95429 -0.0852617 0.765545
RightToes  -2.32832e-010 0 -3.6325e-017
Spine  19.8413 -11.4724 -13.7112
Spine1  -0.462865 -13.2469 -4.26897
HEad  -15.5465 -25.7032 12.1162
LeftShoulder1  1.99433 -4.92972 -16.9632
LeftArm  -21.3867 20.4644 -54.3523
LeftForeArm  -66.0104 -47.7653 -15.1916
LeftHand  0.047688 5.9935 14.4158
RightShoulder  0.946822 0.578155 16.6049
RightArm  44.2754 -52.0741 25.8029
RightForeArm  46.2903 40.8603 6.726
RightHand  0.0424318 -4.83683 15.8538
LeftUpLeg  -9.03176 27.5621 -5.55764
LeftLeg  28.9904 -0.631331 0.0911522
LeftFoot  -3.30884 1.60818 -22.1383
LeftToes  2.2737e-010 4.38529e-011 2.18788e-011
